<mxfile host="app.diagrams.net" agent="Mozilla/5.0 (Windows NT 10.0; Win64; x64) AppleWebKit/537.36 (KHTML, like Gecko) Chrome/132.0.0.0 Safari/537.36 Edg/132.0.0.0" version="26.0.10">
  <diagram name="Page-1" id="FrMVpInyDtG3Ly_lwlZf">
    <mxGraphModel dx="2419" dy="1519" grid="0" gridSize="10" guides="0" tooltips="1" connect="1" arrows="1" fold="1" page="0" pageScale="1" pageWidth="850" pageHeight="1100" math="0" shadow="0">
      <root>
        <mxCell id="0" />
        <mxCell id="1" parent="0" />
        <mxCell id="uzIJghUKcDI-tuc5dc2s-33" value="" style="rounded=1;whiteSpace=wrap;html=1;" parent="1" vertex="1">
          <mxGeometry x="-7" y="-140" width="1540" height="650" as="geometry" />
        </mxCell>
        <mxCell id="fYFjBYdR_pZwH0ae9uz8-2" value="" style="rounded=0;whiteSpace=wrap;html=1;" vertex="1" parent="1">
          <mxGeometry x="1006" y="306" width="280" height="180" as="geometry" />
        </mxCell>
        <mxCell id="fYFjBYdR_pZwH0ae9uz8-1" value="" style="shape=image;verticalLabelPosition=bottom;labelBackgroundColor=default;verticalAlign=top;aspect=fixed;imageAspect=0;image=data:image/png,iVBORw0KGgoAAAANSUhEUgAAAJkAAAB5CAYAAAAqGIM4AAAAAXNSR0IArs4c6QAAAARnQU1BAACxjwv8YQUAAAAJcEhZcwAADsMAAA7DAcdvqGQAADp9SURBVHhe7Z0JuJ1VdffXmYd7czMSEsYwQwkoIMqMxToPYOtcK6W2ttahDnXo5/TU1vZ7rKXWaq1Sp2odEBVFRBGKyCCCBiIQSAgJM2TOzZ3OfL7/b71n3ZxcbhieL6nnhLuSfd/33cPaa+/932utvd/hpNoim6EZ2o2U7hxnaIZ2G82AbIZ2O82AbIZ2O82AbIZ2O82AbIZ2O82AbIZ2O+15WxjRmtT2U0iXopZCW/+Sq5RnSs7bqaYfzTLqFB38D7lTCq1kNranmZMpeMKjw8f/ctVV+/bI7eRx/FHOVMqoPeNXRLet2cmbVkwiT3JNmYSdSx8snHbI1kO052kyeroTOCSwgvjbUKjrrKFB1bC2FToZWlZTDGkij1PedovxVizllBckBMPJQD6Cl+yqT2W5Ij5CFOK8pbQmMnguqyjA3lqktV2SqnPQNQkU7ZQlzqFGXKdCTglQ93kv0B64GVtXoOfT6uisQjLjk1mfxPupQspVREtjmNFfhjmts7ylGVTS0HIcskkBePiYdtQFnFIOQBGRKpNoySTFs1EFAVK0A0lEGtEZ/iiypTrSMG8mBZo5olOWgw9VSM21xR8NSQ7n3pEPvhSFktb1Fu2BIKsqMCp0NwaIoHNvZWdQghwFGiDFhSVM6zyJBqyMnsrrf0MFW0qJ4uShiIeI5Bg8deQ0TB0HAmAIQEDCkiyudKsYZcnoKJYmy6T8FHxndNJUOuUz+utVBNK7eEPIM3nRyfLbpj0QZACsexjpdkaCHvchSChazZHsYLFDbVcpNU9KuTbEvCaaBQJq6MmU/qaskACTzMETQCgrcfhWcCMAmCCyosXg2JJfV9WZvEEXgzggDnGdVb6GIpGBFuQoTFAc8eTvDpPN72rub5P2OJDRGu/o7lbhnCsyieJv6CSFtoaxia3CXKJXMtIa+GeACxC1fPCTf7ChHMONxsTODSX41cIhJWAm8CgoXkHCtKWGgCh6MA8HNCP2lzLMB45ZmexUgoikjoR8TUGgSoqq2LhOB5MmOAKRGiAS4OBZZ0C2eylaM6lZOqNWUceDpxgzBsW9KV2UFJlpjVoqU7B6VXAojVm9kbEi2LP1DjVrCIBtgAMHgSslkGWUoXmgM2tpQPGW0kpL1QW2MQ1/Wgk55cepYpFRU6aUG0irlEvSgHkVpYxgmMvZqKSrKwaY5hXASOAEmYkH2vuKVVq+W1OqcExBnFxLpoR2zLQr4mhkD9AeBzL6F0rTLAAhDdFMpWxMcaMa63GN0tbhhk2MbrP7Ng7b8LZRO2LxfDvu0Nk2p1ROBiqz3pqyQ6n6OhvdeJWV6yPWqmv40zkNZ1oLw5TVNfqtwlybtc8bNZjSfmga6lVI3XeP3X/5FVbeNmGprNaxrZoAm7P8RNu25QvWPHSJzT3rVJUfsGwqY5lGw2q5rK3Yut5uuneNbROTnOpiawPQNGSPNVDCa8sWF8r2ksVH2lAu75NmON2wAdXKAgGVihz4cE6B0N8y7XEgY2uCFR/aIaGiTErGfn7rBluxdqOt21KxrdvGrVmt2lhhjo3X6nbqkQvtNc89yOZLHRRcAzyUrDBHltv61Z+28sQD8n02SNtULZcqWKNRslpG+mPoEFt45PnqxfmqDfNaVL3yq3693O762Pk2a8M2+U+SoymQSesV61m7vygddeaJtuT9b7YJASWVLTgoJgTU/9mw1r50/ZW2oSAoC3yNtAywFgAVmdOMhmnOeMNOGtjL3vfMF9qCVF6ToWnDShtS+xJgCWQq4ytWQo+ArEfE2NUUvYx2SbuZuWH5Krt5zXq7Z7hlWzQsw5l5MjVFa5aklTIjlslrINUbGiOVLEl9zNHJLJmtpqAzJpMqF78+YKXGoBUbA1ZoFq2UKif55JelpE9YJITr3pD5zWVrqn/MUvmaVdsjAlTd2rmmQCMEl7M2zDaFtFUO06xSgopMYNaq0mpVmdqagBaBbZaqBBwRAFMCKhrOVDbBkv665k60aeIjKvQI7YEgY5A1ZG1CQf2e7GSNyeGuyOcalRkazxVsmwaorriiNBM+VLZdk8PctJYrQJUFQKmiVeV7NQTCVLYiANbUYdJm6br8ngmNqAIjqkBHMq6+nSE+RflgBbRYqm4t+WUNgbiuOnLKmGuguho2V5qtyN6F/uMzVsRgXOcjCjVMMD6dAIbHldPiJJXKKk2+GPW4vwXIYksjCV491zMg2xVEV9LdvieeXHEiSpx+2T7fRU06virz0pZz3c7KFMmjZ0HJqjGrQU7X89JKMnUtOeFgRuWaGkRWc832hAa8oXOFtsxse0x1jcsvG5MVlKeHXVWFybZGh5oy2VU5/0JsoSQQu4pMC0gVrQHqVqypjJgXWnL8dUpdDYSWhqpLPsvnBDC4pWUGpUHlH2ZRXfIva8pHe5pqcL1Wk6xi4KpL+TVxeghbkzTZLz1PDhwF0ORupDRES4NuNSmFho1qTC+94lbbLJ/Ld/I149lgZcKzUqtlZM4UnW9UrT06auV0Vo2vWk3X9dQCN6kpBlijlNWoN7QiTEuDzVV6uj2kQZ2lHGUNfk6aTYMvX6qUHlRmFQAQqgz+bGV4XF5GVgiSaJYZz9hARYa3LLC061ZW3upAUfWqVja9tBwcVMWpSlWgawr4Mo5atABcfLGSNF9TYG4oX1booj2plMx7Pm1lX62qfs0OFgK0l5B0Vm9Qf4Csu798JEGafBUt8XC261JL//zJC+zTn/0P2zYyojTy7NjJblQUxUxn8OKYEFdTKeHBqs7TXVsklJSaer0jJbqNE8puzx118jcC5M3SFcftnBPyMkQmmbrSk3Z009TrXqD+ANkk0dn4OZgMaaLcgI1Vzb7wpYvsou9e6r5XJpuYyBnqHeofTUbwO8Uyk7rgrKa4T33mQvviV75rVWmzmnwq9tZnqLeo7zQZAGMnDB/q4kt+bV//5qW2baxt4/LJUnl5K3J+Z6i3qC9A1qxLO+l/sxVbrRlbv6lhX/7qRTamdX86N2jZfFlZMloMzGiyXqO+AFkml7JWs6EVfNZGJ+pW0ZL+Y//3k7bm3oe1whoQ+NJsTclVY1Oiz5TzU4D6YkTa7JByM3i8asXSbPvJT6+3n1/3K60qeUZCmsuXZDKTvg0+Q71G/QEyd/PZKC3Yli1Nu/zy62zbtpo127j5OGPcq2T5r+Z0bTXMUG9QX4AsnU1bvVG3fCFnq1c/aLfeepeAlVOCACWA4aWh0wBZb+55P7WpT8xl3XK5nDXkd/3gkp/axk0jMpuD3GVJTCWbs202JgWwPtRktACp/b6naKrV92j+dNqWZOOcqbWdiOmw6CnqC5DVmzV1fMq2jphddc1NvrqsNirCl9aa7aycfh6zyVkrLQ9t8rHQ/iCe3UcP82BGTitjXhapyv9seNvQzp29PzWL+dRUHp6G9TsKqYxxJ7XFrSyeneNBRk/jzxSk/hapL0CWy3G3LmM3/PIW+WQjls5kLZNJnjBNzGN0aH8BDMpKZFoyrj8EWjJUNSuwYhbA6j5pdC6XodVqWUnAIn+zoQml6+3uQS/qsIT6AmTJq0RpW7bsFms0NIflj+24H+bzOpnqPdzZ05LE5SletFNNPiZNyEsd+SPfHnhNLyWwcZqyQfVFvSb/NKelTjN56TiBWYCt96gvQMZDNBOVpq1Ze58kzlqTZ3o0ozv3nruI+M5pnxD+FwBCOwEuHv+u8jSs4lJyOgsCVVYTq4lZbDRstq79bSUpuKzS/b1MGk27O4deo74AWVqaa9vwmG3eOGzZTEELAM1gf2qvPxTxY1FT3j7vdM6qm5UV8D23FdJWU/PaGTZm+NeyeY2UHV6eYycefLgN5gVJ9UFGfYCWS6iDsh6kvhglLOP4OM9+tSyLf4YWo0N3UGM76rS+IZlKWoNmmtRIROsfDzPW0loANGp2mJXsnCNPsOMXHebvYZo/+5Y88O2Fdjz0FPWJKkjZ2MS4PysGuHw7g/2M6ajPsIbjz/uYrIpZaeKLFdW0XDrtK+i04pcMDNlrn36ynbnXEptDmUCSAu9P+Ql3PJL/PUf9ATJ5w/Vm3Wr1mg8Gt5IwITtS4jT3G7lHJT+r0hmJgj9unWxl5DWRFlXbdu7Sk+y4+QsdYKUkW4ImBYrR7AiTIOshtPUFyHj2Iq3pm+fZ/BaPNNc0cXtxzj55YqrwqQFWjrSJbYm2HPxypWFHZgbtbae/wE5dsK9WlbyvpFUlUGI2dRQYBLjgMzntAnE9Qv2hydRjzVbDGq26P06flT/SkGZjtvc7JTpZfwWyqtrGS8MFOfT7yfN/3XGn2THleTYo4GXqFa0qBSPfuqEU/7ZTnPfi1OsTkElQLetRXoCLnsx0Vl7/P+SlBVSODA7bBzsQIFZUUkvXX8+WXHOcUioh+DrT5BLqsOuKSq74h4c5npFfJq9+fjZvbz79hXby3EU2X4uciVTNcirMSyZTOUAhidMOF71BfQIyidlmHZXTQGnR3mKDMmNp+TIxcOiD5LbSE+/lZqZudYK0SL4hPtgtFW9psFvpuo51m8hxU4dK9FcrvZYCbw61uDHP9zD4OkW7pqA8XnWytVKXLBO5xHPkGTe2Jsr1tpUUuH3ES8D1dFZB/lg9ZfVq0+aNaBU5XLW3HPdMO3Fors1SabilMnlrtQo2ni3bJslqwy1LjauySsUmmsiQ1OpvjqtCwN18Ev2wu6lPQAaMOmFSPTD/kzNGl+gn3a0CrG8gCAAJH5FOWjFAAjEbwWkA3srrmu9TNJKg+HarrDgFCqUFNEDuBXkht62VI6+0eYSbQTZeeZeX764AXW6IZwXushBSFfsDykP2hmecaScPLbZBoSUnzQV42LpJZwu2uVq1VePDvn/mr7tneeM8kdz/UleInhx6giTpU5cAT9rBo/+MkgNFQRFozHQrJxOVtUyLb03k/Nq/2uPPt2XkHvEupoK/+8iePJ8loHjyUi6bq3zUB951oYUN1oqyEgAZ71bybhW3J1FQh8zf207c92CbJxQWVFOeFym1AChms7ZFi517Jobt8t/cZFukZdGmTfmmNfmqUwFFUxx0PUJPaZClWgCIGzOYQkVo8NBSjjcGWODKyjRncbzRSq6ZCNJ8rgWBSM4hl3wSNAgtlpZpFBRVho/c8WUedvcBGk9ZsGLO8tCl0sbkcy2st6wszZWTduLLi1rliE9a16pjpGnLxjbY52+60tZUtli9nJf/xndllSP5XsF26iUV1qGnuCZLAiPjz3ApCEL6g3nkqCgBwNLjCqMKFWkzARPtJoCkU4pLjfu4tqV7/KuLQC7FZ4XliQmMAAz/iHryspWEXDP5npjrM/l/4CQls9eoS0PJDA6XpC+lpeDLdzGuqK6zC5ZfY6uaI2aDBQc1k6LeqErazlsN3g6Rt2H7ZS/QUxpk/jRtMmSdgdHQC2CMoK80BaSWAFNPVTT4AgQ2TRoMTSOXXYATyGzCOzHBKP/g11A5OfsAQehqK7CzX2xmBDJpR8yoKuSZsXZb5q5eUYmGZYp5L83NonEtEDZIouuH19l/3H6t3VUftWa5KFgCTfSnTLhO8pJzchATIVyjzoCsRyjlppEtkc6QOMDkTBPFYDUFgFzWKgLJuJz+mg3I5LEdysOENWkz/DfeL0g60jvT0SoDLLPXyKasygOFAmeuCXQKQl1Kykhu/ahWhXn0UFtmUkW0yhxtVAQ6abYJPjGVsus23Gufu/Uau41vMJaKcuqUsc6nrOTzN1VOq9OcTwYq9modZC6Cx/QGPaVB5uZKIPCVokYleaWOY7JKbKeLVrU5NpHeT/79cdYoHmvjqVlW8+e+pUkyA8qET1dXmFBcRcgUkAQDzC9fnkWLJbnTNiGTOJLP2ajKZ/hkUDrnGi+dKVhWABpMFVzTlaSnrlp7t31v7a12Z33E5ohnTnjOyMyyWsXUohl9wdBBEwBDgwXRjl6hpzTIts/26AY8qZacbT4ThY6aZSO1xWalk2zuklfYvIPPsfbAsTZan2d1rSybNYabBQD/AKsKuQoUP77tpGvWnTj/rEkfkq+1db95tvBZx1smV5RvL53oQsiJl8ZEUU1I+/1s64N24eqbbfXIFoGK/UAgqtBx8iflpiqFAFiAjFy9NLBPaZAxSjj6bV9acqlRTlV1PWYs6qqNsg3MPcEW7X+O2cBplpp7ms3b73lWGFwqQMzuGEqgxY59VkGQQoUo8GEqnqTIwVImjgcTHxhM2eGvepGlznimf6qTF5LbQggfu6vzzFw+a7+UD3bB7dfZSslQ0yIgrwUIAG2JV00+HE9qOKA69fCNWLHxEIT1T+DYG/QUBxnNTzZkE7cMZ6xiKa0iqwJGoby3LVx8kmVKz7Tx1qG2tbG/pYdOsQUHnmWFAZlQnrnhS4oCV0smEqD5zW75evhMfFQvyzNwAlJ21oCd+cbXWumsZ1kT10xV+yOHAnhD6VVx+J+Re+38O35my3PjVhUItX61pjQcz/mPaYFQzymvyjmoOHaBLNGbnT+TF71BexzI2OD0N3c0cPQ1qzUfFH9cWys+tIJMmn83X44+piyX2uq78NYuyZFSaO5lJTnu6cJsa8oXs3zJ0tmapeQItdoL5J89x8pL3mqP5F6uQvKn5H3lxZmPGoMxS03I7I3YWK5kYzbbNs7Zz+a87S1mz3+JzO08y6SyNthim2PUqtm0DUttXrP+Yfv2jTfYmuFhN51NLQpYzPLpz7zUVl7azp/7V7uoA5+M1WVRZpmPliav2nSIpmG2e4T2OJAlRAdjCrcTL2vg0Cc79m6AknSpML4XCyX52bTKulsFSFvs6MsnQk+xqrOMrnOLLDV0tC1ccoYi8Mswmdw3hT9RMn0NacV22UYW7m1Lzn212anHWSUzKF8OOChXoya/P2/rtaK84ZFH7NLbl9kjtQnLDgz4SzJoVnjh2BOmQmbyGqE76ZNxOiG6V2iPA5lrKAVNeO90HyiFjMwNe1vssicB0yjNpEzs4JMHYHEfqJ1LdtMhIOQJ3Oqp4sBj6tgszVqpNKjRBMzJp6xYY7rZZcVZ2suaxdl28LmvNHvZ6fbQLIxjToDJsQth9cEB26jjnSNb7eI7b7LV45tlRlUbmkk2kC0PXzlKPmQE8N3A4dobSOhxolv3KOK5BfRUZ3y8gQCFnfjkZVlpG2k1AjfCCZhMBhQA8Ux9VXkpj/lhm8A5cH+yJTMmpYevpOWh4uHOznwy2okhE9WlCYcW2eCbXmX23NNsVHYva2XbTJKceX4ggh+t+E1l1L562422vLHF1ucaVlFlmMUyIFO9ADZWj1BSS0Iep+ALgA51nfYU7XEgo/NjxvuNGWktCCC0ZAabAktDoalzEMTvIaHlYr8J4i4kfo6/sCF+NTn4mwW+rSX5dfmipdmvQi/Cnn0uZeI5fWBHfps31457/ets6IyTrJXP+XZFmqddO93N9/uvHd1gX7vpWrtjbLMNy4KmBspSwOJf4w4A2yECs7Lj6HOOLKxU+VEIqnDt1gkesf3Qc7THgSyBEw0DXITE9+Kr1fVU3moKDjKBJC2TmbeKlTTodASgRHtxyyfV0B8N6ISYPaK4q9bfY1dvuM+2wItcLa0MnU9S0kdb1bXQfAfsY6ljDrd6sSSdqLxafcxS3owANCK2N49tta/cco2tHN9qba06KVKtoCLxxWQm/Rv+mOXtIANcaLe86gowAUWqJd3jOCFsP/QE0UN7FGEoWUM6QjpajKtmuiBTmJcvVZTvlLGGzGW2NWEH7T1oJz3jaF/Jtfn9JPYExjTglYZVVXy9yn571TL74rJr7SvLf2FXP3CXjcnk4X9JHfpo1htNa/HUqs6b1YaN5dO2aX5Z2rBsGTlrOWnNtOJ57PKmdWvtgmVX2qrmsDXKAmldGk6AHRAIeXKDn7vhp2sAGI8HUYX++2qSl3znlQd9YZCRBm2oTto2lbqw1hO054FMvcug+DZGh+hw7lL6D2K1avJ7alopjtthi4fs7LNOtIP20Xqz0hQYGFV1iczbRD5rj0jDfW/FzXb1vavsYZnWB8Tlq7dcb78c2yjzKb5y/rMCbFuaB43XlAXm0ZyiKiwC5Kx0nlaaPMFbKebth1vW2LfW3iwNtsny8ukybE/I5pYbMrfCaJjsMIPJJX+1esV31NmcfNlNs/+gV84NdEJJtsnTXqI9DmQJxAg0LTmPwUphHqW9cpWNtnTfsp397KfZ4XunfYBn5aRBZM4sk5fPlLUHpI1+sOY2u2LtnbaO7YaBQRuR5thcztoFV19m12y4xzYKFeMabPfLBK6acM3b7cn9xbZV5MsBvq25tF2/bZ19c+Uyu0MmslrIW1VxPApUADo6xv4dAZlZ8fIrJPACYDwuRDvmFMpWVNMoS87piHxJm3uD9kCQBbg4RhDxEzQycqXWiAA2YC9+5iF25F7SOHL6882KRkXgSPPDWSlbp/CNVb+2i9feJrC15PjnbELLwfnzFtrWZsMekgf+9WXX2NXrVtu48qIzlU2aUIuEDLeJVCt7XYLaSDZjy7ZtsC/I3K6qV2xMvDCc1bR8Kzn6fAqKW0z8HDTvGvCDXvhlWdlJwI+ZhHjYkbfG5w/wo2Iigbtz4/NRYCN2ux7/7VNnBPYcCo+MNaJ17kkyCFlWkrURO2yf2XbOs4+3oxcVrNgc04ptTANZlQ82oUwZG9UIXX73rXbFQ3fZmlzDtklzpeVTzcoN2LYNW61cGLRRsX0wW7dv3nKtXfvgKmtoNZiRG8fz+nUhbVRSuFZqNW35locEyOvs3kbVJtoyofIN07mSFSrKJ2Djv1UlalWmFiA5QCWDg7YDMkCDf5YpFmyv2fPkOypCGpN2TeqzBG89SX0BMnRCsmZMiLPY6/IUdTADQ+jejuBHsKoyZYBu/sTdtnRuzV555nF2yPycXHIGsmCtESGDt4AKWVutgf7iipvskrtvt60CSCGTtQIvcaT4BScBsaw1a1MmV0DhF442SON8Z/Vt9v1Na+2eotm2rGQakzmWFtoqR/6ajevsy8t+YcvGNgmsGf8tpEJDGrVSd3PKa32q0gq80Kt/DAbmERqW1h0rpAS+lD/jb1qU7Jcv2qEsDjyjekFt4+FF7xE6haBLkuHbK9QXIHtM6gxK8s4kna3pj/+i006SD8PSRUV7uTTYwXtlXEsAzPaEBrs8WwMqUOQLdtl9K+x/HlxtmzIadI0kqzleX2tZ05q8Joc2BNxol7ZMXjZvKydG7MLbbrIbq+tsI0wLORtXhcs2bLDva9Fwd23UGrPLfgOcsnllyXfMXIINgVjXyW2vZMIAtIwWEzx1kS7JVFcnbEim/IDSLNsnWxC2JBMjJ5D5DII6zSc4BonrEeoLkEX/QXFkpeh6rHPEPHHkcec6G1bqfTYwuWnN9yOec+pJdsA+C3zRyU+Hk94uF2ybNMIm+ToX33GjXbniFtsmkDJu7EvFxidmjNUe12hJ4gAxDxw2tEjY0pLpvPJyu3HTfbZeWufajQ/Y97lVJA3WkoZsSxvGrSJ4wMAngfOQ7BqF0GAQJnJWI20DgsrI6Ii1tUjIbZuwkw4/2leU/NgynzRI49fp2OvUFyDTcEzO8s5VF7C4T8kxGbAkhhtLMoOdfTIaOXtWXmZOfo7UELtcrUbFhnW+Tn7YZfLBrrpnld3frgp0MrMMoBjyZhK1sVcFMJJat8tBPLeJxgW0h1MNu+iWG+zyzWvswjtusmWVDbY+07CatB+fHSgJSeHE+/YEPMXH5RbXBNDJVgX/mBy8JcUGMab1yFl72dKSJkkHYIR++WXvvtFkQQGwJCT3DT10Mrm2SE5d7cRXgPh9SHbL+FiLg1JmbbNWcz9aIyd/5W22Ab+LFzlyGWkWeCb1YsYAWwJyYiPorzLUZeoqylkrl+ze2oR9f/mvbMXoZhuWP9UelA6VtuM2kdUFehGOPeCEA9oLMMOHo5/rX1UquKYlJF8yWlAasPm1lJ193EnuR3YDrMlmrN9i6G3qH03WGVgfeZEDhcHqXJMHnZBDTfD1ODWNDViGlhReuGDfKSs/arjZsE2Ku2LtCvvJnb/x/a4JaSQ2VyeqyQu6rm10BAj4ZRy9Pvh5vZwpnc+LShYrlqTRcrZOplNqU/6UwOK/3iuRhTEenZ56q8h38UnXhTj4kXonZM43CbqZYsbaG7faCbP2tqVz9uahIwdXQ4sHCHNJ6HXqE5BNpWS0czJT4+Pj8rEEHuGqURv3wWRtxbvZyUv+MlNCRWZMRqmasko7bVsyRfve3bfZD1cKYDnFyScDLGk5+gO5goMIQHDEyS82MGeY5wQEBAjNA/iy4lmdqFpKAG6o/katYYOqfzCVF4gAwo63igAZLABYuinTmMs7ePgGLJpsQgnV2XmbkGbcT7K+7KBjbJ6A6pqPBYkmA9psxifbraTe1rRvNOo2Z2hAiKgJDDxNUbcJ+WH+m97KReP8I764Zqmc1TQoGzUmF6++xb5/70p7SI4QHwF2H0zDzrcrshpsTCR1ADLQAJgSxdXRnpx2iLyUATDJwgAHn7fHOSZloQBncsnfJICRSqUia5q8MZBThK9LpAXntzJ2+oFH2PELFvutqg6rvqM+BRkkMGiAxse2uTPf0qzfd+E8K8oPAmBKSh69YWR0UdXFxoLZlWtX2pWr77D72g2r5nklLQY/GfTwwdAaUi9Kk8nFR9Mxtkk4JNoMP23782kJOBNgATby+uoRJOmcOH9A0rOx06+gCZGSGi4Ui/4GuVXrVlCYL817yuJD7EVLT7TMuPxITSg2d/uR+hZkDFtWWigvU5cWYA4/+AD7P+99p82bW3IjOanBRBVFcHvoO6uW2aWrbrb1WgQ0eEkX7QO80IpSQ01sI4ZWznROAaCh5XhNraEjJhOgwRpQul/mKm7HwJZE3Cri6D6byrEoiVtFYDA+wgLQeKKCbIMynfNraXtaara9aMkxtrckzAiE+YJMZJ+OVp+InWiCHUmOdWXCWlotHnHYoXb+Jz5uhx60t5U1zvyEjD9RyKc/BZyNurzkwZvtsgdus3ts3Fry5QZlzgak8ngqFrDwIkmyH5aYvnhAkJUgIMOnSjQUkvAnKdcdWkpEw+F7+a2iDoiIA7D+PFiATDKRxgORLYEoI1Puv7xSqdsB+SF79dGn2NLCPBtQ/mYpYzUWFB1N2W/UFyBLSzW05CDzAbp6Rst2LfFb0l65ds1OWHqAfeg9b7QD9y740wm842hjY46GrRrZtYLEt+9bbj9adYc9jL9WllnSvwx8Yh+tAwBWpryihuYBVJg50uIxHLQP5A8W6hrFJ2x1KNniwNQCuDqfdmJZyZ4d2yeK49sXDR3hzQPezaa0p0INMzlRsXljNTtpaKGdd8Kp9oxFi60sE88GDNq2mMlankeR+pD6AmT8jhC3WdoaVXlSGqyqlbS8P+ygfe2jH3iHPe2o/WxWSYM1NmztasWsULAtGtxNWjFe9sBK+/GdK2yjgNHMFuTXaLzVaoDGh3vYtQdYrAIzCoKPQMCXEjkKdPoHAAEVoHPfjH8qQ96kC0FfJ15naEcC7176+5cCEt+4QEvWdazUtRJVvrJWo0XxGRKM5qnu4+cusnOfdYYdWxqyWQIWa2RwxZozfLx+pL4AWVbmpMl3+5sNK0g7ocEWzhmwj3zwPTKV+1lBDnyDtMFBaxVLNiZAbtUy/ydrbrOrb19uI/6qdsZXfYm2YjshAVOyA7drA5+HGpKtnCV7WKpnLafrTAPQpKwgucqFou/bSYXZrImGLVGelx5zor36lOfYomzZZqdzvmhBbwWE+5n6AmT0MtsVvDGWaYza4QcssM+c/3f29KP2N7lX1mT7Ip+3kYkJmciUrZefc/nq2+3yO5fbg40J/9AJwMLPim0FtMqkpdvFFH4ZPleVPS8hpppjIdC2ivzIjFaPxfGqzau27eS99re3nv48O/vAo2yxCs5X+Vy1Jhm5pdStH/sXan0BMh6fl4ekjpeTv2SRffi9b7Wlh83xF0CqE2OWyaVtvFax4sCAbVGLrrx/pV2xcrmtS9WsUpLp01LTV47ykbivmZZvxFEGFO67PuCL+QqWfTj5kbK3fDVU+tgWyP4dlRu0c/Y5wt7/zOfb2094th1bGLIFKjlHxXgXgBdJkhmQTAO0Yz+TfNXeX7KMjddtxZ2r7Z8/+Sl717vebccuPdQfj+EZ05SAVpepZLd9tNGwH9xzp10qDbZVAz3MtkQxb2PSHoO5gvyuxDFn2LBW3JgGvrua/NFoVVNzJ191ZtNWkO+3dNH+dvI+h9jRpfl2cLskUAnmdXmHBZlRB5YmAm+eUzgvFS3/L/SZawNE70O89QXI5Dvb/Q9s8JvB+y5eaDmNR6M2YXmed1bva11gzUzOHli/wZZtelgOv1aOSsJk4bz7PpVGCDMJ0Hiei70w9rAIu5r8bSIJMJQv2uLykO0/NM/2Kg9amUUG6Qq8zobe41Fqbnw7ATKoY8qZBJJafxOQ7XpJ/3eoL0DGrgRSggd2vjMyRfz4fef17uQbvgJZVQ5+Nc2ruenJQaFxDCYByimGbyXmxZDPOXETfVeTb0+IL+9I8km8jBYthCw/IYhEaKoOkBJTuF0G4rqP4ZNFjl0v7e6n/tBkCo265nW74V9r0qIwQZy63AdKGoK3hGgKbw0xJKzMGEsnnYBDLon3CwIZ4LWrSZqzTrcq8H1ZJOWWE7ePEvTwx088r2+NeExyhGKSBKiI7wZbP1FfgIyXubF43D7irSM3R7m8zKjMndRYVv5MbEZUBRw0VELJ0PnGKTz8Srl8YL3xXmZXE9Jk2oKJ+PMsW0ICPnt9OosAIbff2tJ5Yh637745kSCNnehs0voPZv0BMoGKm8NZIcW1mDpaisva6axvrvJb3HyXjJdI+IkYMvGoTnKjPPl2l1/g7SueTVh+85unHTBgu5p4zY1fs3NAqHfbLn/LilqEPIq6e78bP93xWqXuUSDjkg6Z+pwS8fH8Euf/m88xhYCstZo8EsNKjNf5leBWkyMZuE2EBkFGARIzSzL3DU3m1rf6SVPxmhIwYbwHMEm7qE2wRDc5N5fxcfiqv/kJwpRM/WTfCphI35bmxsxyS4qfg36iBjPGEe0Z19ONGfGE3fnw4yTIeJSX0xAqwDT1HME558G5fiJkjtDdod0dTx8Q8vlpNM5uooYmTchEoH5kChkDKNVq1fs8xueJEGWh4BmhVqtZoVDweJ5lGxgY2KEfdjXtoMlCKCpEAK5DMPcnOll3J+p3F9EW2kQ7okOJ6x5gzndnZ09H1ElANkAE6EJG5Ovu6ycrW4wnR3hTD6BiEtX59RPVWSz69yOfFHifLE22IBobHU+DeP0K4WIASAvw9RvRHtrCkTYwmN0UbZsav7sJeQI8DHz0//Dw8GQa8RyfbL8HLwAUvOETcf9bGntSk4UAEFFxHtQdF7Ounyjkp7OZNJzTZtoRg0c8bduds3oqdbrfVq1aZZ/+9Kdt27ZtLs95551np512mgMhtBvxT0a2mDCUiXrWrVtnK1assPnz59sRRxzh7Y/Jt7voUSAbGRmxDRs27FBpDA6CzZs370k3thco2hcgop0bN/I4Y6JB0NqLFy9287E7O3w6Yghuv/12e+tb3+ovxiDrX/7lX9of/dEfuVyABZlicjwRgich2gyQHn74YfvIRz5iv/71r61UKtnb3vY2e8UrXuH5dqfSmARZ52A/+9nP7H3ve5+fQ8TT0ImJCZs9e7YtXbrU3v3ud9u+++472QEcyUfncAwABs/oGBob6XRYaJUgytNY8pDWrc5xVilHiHSc1wAPcVF+OgptwJE6v/a1r9nnPvc5Gx0ddWBR/oILLrCjjz7aeVAf+SgT/LkOPqSTj7QI5Ak5ustBnBNP+WhbyEqeO++80/7qr/7KNm3a5GXf/OY327nnnuvnlIM4Rn/Rl1zDB97RrpAvZIgy5Pn5z39uH/jAB3wRQdohhxxin/3sZ739jGFQtINAuQgQ/OK6u23TUcQ/yoPvriAqwVlEEGb/TTfdZG9605vs29/+tgtLpQQaHUwjjvKRRuMhGhPp5P/Nb35jv/rVr+zGG2+02267zXlGPohy0YHkh2fMzOAfckb6dESnksYRfj/60Y/8GEDmHFlIhz/1U0fITwjeHCMt6uQcHuQjrrtMpEG0g8lBHsAW8gfvKBsTiBDxlOU6+mJqX0Kk3XvvvT5Ov/zlL11rMZEgZKZ95B0bG/Mx5Tr4ImPUF3HBF5mgSEfeaFPIT97uEPQokE0lGCEImoylLsw2b95s//Iv/2Jf//rXvaGhkQjRCI6EEI58XIeQAaZPfepT9pa3vMXe8Y532Pvf/34HMvyi06mfzony8IYn5+SJzkCzUG5nFB1B3pUrV/pAxFI+ZLr11lu9ndQHEc951I8s1NedFjyjw4lDNo5T+4RAu5Gf9Ki3m6IMRB5ohwHrpBFHeXhHGQLXP/jBD+xd73qXa8a/+Zu/8bYiH1Zon3328Tx77723nXHGGd7+0GwhO3xi3DmnLs67KdJpS4zDVCIeelyQLVq0yE4//XT7nd/5HUc/BWFOA9Fmy5Ytc21APIMGcc6ATx0U4gk0JjQIDeyOp1wMPOf4DvChMeQlMODddVEHcTEoOyN40mE//elP/ZpywYd4wMes7wYr9Ub9cQ0f6uKcAB/6hDjkgWfkoywB/hzL5eSZi+7+mNpH5MV6BI+I4xzeyMc1FLKR1l0n+ZAJPvQZZaibSf3Xf/3X9tGPftT+8A//0Hl0a80IMcbwguKceOShv6kPOZCfdOKno8cFGT7KBz/4QfvXf/1XnxWhUejQRx55xH784x97A6gkGk7l0RGcIxwCcI5ApHFEa8CP8xCQI84vcd156SgoGka+6GDyQMgVMkxHlNmyZYubEsqRHx6UITz00EOeFnVHIA+BNpMv4qI9HKHoh2hTBOolPgaCdndfR3nOI8ydO3eHa/LCC0DEZOIaMIX8XJOP+pnEnBNPeWSjvSzcnve859mJJ544yZtywQ8K2aLvIx/1Es959F/IQH9E2lR6lON/1VVX7eD4/+7v/q794z/+o1eI8N/61rcccCH8rFmz7Dvf+Y4NDg56/ptvvtkuvvhiu/766x0shx12mL361a/2pTOaAh4HHnigz6IvfvGLbnLhA3/MMY1Hpf/5n/+5dxR+xX//93/b6tWrbevWrXbyySfbS1/6Urvuuuu8YZR7+tOfbn/wB3/gvKHorG6iU6gHv++d73zn5Azfa6+9Jvek4HXSSSf5bKfD6ES093e/+13fYiD/4Ycfbvvtt59rQ9pIOWT+/d//fdf4lCOOcO2119r3vvc91/bUd8IJJ9hLXvISN8u0hfbRP8i+du1ae/vb3z4py5/+6Z/6QuuWW25xuclLO88++2yvgzZy/K//+i+XjbaTjyP84Qcfyh133HG+UHvBC17gclMH8U972tPs5S9/ubeLttI3l112mV199dXuEmHFACSrXGShD1mgMN7XXHONT9g5c+bYscce6+N5zDHH+CSg3u5+eGz7IiITwuMkUpAl70UXXWQPPPCADzLm5a677vIOZBn+t3/7t/bggw96OQQn7WMf+5ibPRpHHJ312te+1hvDLIA/gQEljrws5y+55BL7yle+Yvfff793HjMJ0AFWtlnoaPjRSeecc47nod7pCNmh5cuXez1hTs4880yPQ074sYe0fv16Bx+ELMjEwMEbTUdfoPUwPwATsN199922//77+4qNOMp84hOf8G2S0IIsbuCP34k8lGegAFkQdZBGW5h0V1xxhQ8u5e+77z4HMrIhP1sSTEB4kD40NOQT+J577pmcaPDC+WfyH3/88S4X7SOddsCbulAuH//4x32MKEM6vhygBNjIArD+/u//3vfyKEP/kZ/4U0891cFGWeKhkPtxzWUAINQhhZgZDCyzgRnKrEHw9773vQ4+BCKdAUKb0el0LCgP1Rq8uSYeoWkYdZAfoH75y192DUY6/BCa/GhF5HgyBG8G8Cc/+YnXzzXaFw1E53CNDGgYOg2iPuI5IhdH0pGNAUImCH60HwDSJvL8wz/8g7sTEJ0e4I8BCvmjL6YS9TIBDjjgAOdJn95xxx2+AkYOeAbAyEsArDj09DtlqIO+RE7khzinftJpA8S2Cds3MVbkJQBarpGRgGuEUiGN+tCOmHW0OxYGPMCXdNqLnNDjgozMNMgRKcZcL1iwYJIhcQjObI4GwxwBmTmvfOUrPT8NCKDACz4IRhpCwQuep5xyir3whS/0GczA0bmk40uwA/6iF73IZ3I04IkS9aFt1qxZ4zLSJngefPDBbrK4xlcC0GgcwEwZ5IqOIzAwrMrYbzrrrLOcF4GBgzd50ArwgieExkIDYXpoL/0Az9hGmI6oG7BgQslDXtrMYos0JjODTp/Rn2yU/97v/Z5biYULF7pMtIGy9ClpnFMvgIEHR/KxnYOiQGYIoGKu/+RP/sSWLFni9VI/JpT2URaNff7557vrxKYuZaBoM/noE+hxQQZ1oxkhmaE0jMphhKDYcwgBEOhVr3qV+3JsS+DjYbsRgPIQZf7sz/5s0ryQht3/0Ic+5KsfzBe8Yia+/vWvt3/6p3+yD3/4w974aMwTJeq7/PLLnR98Cc9+9rO9HSztSWfASKduzBxxEHVxThlAz/YAfiG75/QJhIyYcI6hbehorl/zmte4KcKVYPBihYkm3dlkoZ+ok4l10EEHTcqNj8YkuPLKK31SIxsTA3CR72Uve5n7WgCUtpH2x3/8x76aBHyhxeAdYMeHhjcgJDBmb3zjG30zGCABNPLDj/o4srf57//+764IuD0V40F7oq9oP/SENBkBxiEYnRizAaJxqFFmAgNFhWgcGkQ5ZhJIRwDSqZxZFmaVhnKkHOeUi/0yyjNLAS31E1784hd7/JMh5LvhhhucP0T9aLbPf/7zPpOpm/o4MonwA8mLrNQJISNOP9oo2oI5g+iL6GDMZbSFiYM2D0KbkQe+pAdIpyP4ISfAAZiUIXCngjsz1EEeXJbnP//5fk2/AF7GAt7EIWdQyEjdyMwR3454yjDhcOAh6mIsOFI/gA1Fw4IPGVAI73nPexz83USe6LfHBVkIQwdD3/zmN90BjZmFTWabA6KBCMosomHR8RAmDh4IShx5SYc4RyCu40jjoLiOTiYvs43On47gjcyEIMqxWMBJjU4iDhOP30ebwnkmHh6/+MUv/EjdwYtJgTwE5KMtgIiBJIR8lKMfKEscAwIPytEvyE6+APV0RDnKE57znOd4/xEHsVBhIUKfwBctxsIreAUYqC9AHG2jbnjGGFA++pI4+jbGLsaAI9eve93rfILBkzLURzxK50tf+tJkP0HEUz/0uCCjI7DFDBJbDsyiYA4TOgAhECyOzCxWmjGgaAycVhpAHGWhOEKck5eOiM6Ma8DBNgDENeCIBkyl4BmdCw86DxOIakc+OpeBgAemnTIMGEfaSxl8wphIHLtl6iZ4RxztJy+ahEAZBgMNSl0EBoR8yBeAnI7oK8ojLxMZyxBx8GEiA2R44T6QDzm4ZjJzPR3R7pAXXrQPVyZ4Mla4Ct3thR+y4ruyZcIKkwUTkw4skAd3iXGHD2UJ0bbHBRkrJvas8D8++clPemUIhrA0nr0Xzlm+49zDmIC9/s///E+78MILfaWF+UMYBIHgsTOiow499FDPg7CUYxvk3/7t3+wzn/mM8w4+UykaCVGOczoCH4LOIh0gMAic08Fc0wYARxwBx5qlP+WR57EI/vAAOPDB3DAxGTTkxDlm9fbVr37Vz+kn8qE9d8YbACEHbaDP8QFZTFEX8QEkFldoseAT/UWe6SgmPukBzNCCBLZm2HxnUqMo6Oswp2grFh64P/jZz3rWszweHowVMtAP8IbXEwYZHYJ5JNBIZmYg9i/+4i8mwfDc5z7XHUuY01CcYDQfG5ts4JGHRnEkD4JNJdLoUNJYjTFTIIRnK+Mb3/iGgxathObZGdGRyAc/AgBnfy00B4OPiWQViF9Bh6K5cMpDfvJceuml08rZTfCjDrQMR65xH1jeAwT4sG/F0w70BRod2cn3WI5/EPUzcPi0bGpTB4SctJFVI0f4xGBDO+NLOmUZw+Bx3nnnOeixGJh2JheLmze84Q3eL+Rh24aFE/uW+McsJlh8xMRiAUf9AXZkhj/0uCBjYMhMIZggHMt+NBvOZmgANgHZQAVIdDhEgxgwKJx88u+sA6JDKXfUUUdNquQoF+l0xM40GbyRl7wQR3ax4YEsyIdzy6DBM3wnztFAdFoQLgLahrjosKlEOWSBRwwg/NnAZHAoSx/GOcAifwBwZ3xDyxAiD6tGzuFDW2gDdyiCP21HhseiSIc/+eGFGWRxQltYIIWpJw0ZOWdTFu1MefLQNygc+CATm+EcyYvMIRP0KJABEB7e45YCgYZwzREgcRsClY+moQI6CyAgMCodbYDGC6Axa/EnnvGMZ0zy5bYRAiAMjmTUhSaEZ3QEe0QMFuUQmk4gnU1HVrTBj/2ubiIvjSUASkwl9VAvK9W4BUU9dCKy0w42FY888kiXg0Ab8OPgT1nqg0/IB0UagcGJDuZxKNwM6uOafqAs7UHL4V7gzDNh4Ic80de0CT7Eh0ZgwBloJgVykR8thpxYG/oz2oxM8EEmeJEXfvRdrI5Ji/5EPrYs2O+iHPHwwZWgLuRgRx/TTDuQhXIsemgD7WRvEzlCVuoLetSTscyyWIJ3dyaoBTyBctKnUjDHn+F+GoOHEAwevNB4lKNR8OHIDjjCxaAjOOeUJS/ysFGIueYctQzYmU3kpz4aPjjIyi+ZSdHQSKc9HAnwxZekIzlHhmg7Zdj9jhlIPG1moBlciHIAI8rBm3TOASztCq1CHFshmHeIwUVD0w7KwINAm7nulpM2MMjIRR54AFxMGmmA4Qtf+IKDOOSFKEvfEMhHeeQFLIwhrgNEfchL+2g3eSnLrSQ2lWkv/RpanzTGiTQmHnwYWyZlLBy65eimR4GMENRJ2iEOCgBMR8EHQngag7DRqRB8yRfXQcRHWeqYTmh4QsEXohz5KUsZjvAnL3UQ180bChloB0eup6sv+EZ7oy7KkD8GMqibF/Vz3j1pkBtCE0ReAhS84pq8lCUf7gk7/JxDAA6rAYXcwY82h0xcRxniIgSRHrJxhBfpATyou73wjvwh51SeU2myV2EAo+iYEAwK4WFOejRqKpEnKguhmPl0VggFD4hreHHdXR9HQuQnQCEXPAnMzIiDyE+AKI8cMUDdvMlPOc6jzcEz0jl21xdxURdx8Ka+GADSIj3OGRDykI48aDDiuKZcDA784pw0AkQd9B0LB25wEw840T6YL+roLhv1Ed/Nh7hoB0Q858hAII24yMN5tI3r4E068nTzjjLBezraAS0woxBEBfgpBDocinSO0xHqeOrgwCcazjnCQsEr8lGO8sE7hO6+pjx5okMI0VjykQ4RF+fRObQj4rgmf/AmHv5chzwMcKRHHMSRQB3IEvwjL2lcw5MB4RziGP5NlIEH15ThSBkCaVEPcnDDnr0r8lAG/xa3AT5c03fURYCibDfP6JOpYxQBIp4yjBdH6oYCpARAHhOM+pg48Hos2sFcRsUcqYTjzuKoZCoRH9R9HuWCOKe+aAzXHImLBkfcVD6RhwZGJwSRlxDyQt08ptYFIQPnMbiEOIfI213usfhOdx4DDL8AJXWShzag6YMiH2lRloHnvi3aDKLNbIizEiZf5CVA3fVPR5G/+0g9yBVxyME5AVmRAYo80TdB5Kfc1PigSZB10zRRTjB6PKJsd77prqGIm66uxyo/dSCCpvJ5ImndPKbj133dTY+VtjN6vLqCIp6BJ7Do+eEPf+iOOIPM6pAVPk47FPmnk2c6ObvrgiI94nd2DT2RPNPRtCCbod8+oT2YTKFV0ChhDjFZxEX6zjRIr9AMyHqUAmRQaIqpgGLoAoC9TL09BZ7ChKkMEMX5VICFL9TrNKPJepQYFgIgIgC00GQc0V7EY0Ixn71MMyDrUerWUgAJcMWqFMKcct3rphKaAdkM7Xaa8clmaDeT2f8DpCEdWNi2i2sAAAAASUVORK5CYII=;" vertex="1" parent="1">
          <mxGeometry x="1073.0014285714287" y="331.9957142857142" width="153" height="121" as="geometry" />
        </mxCell>
        <mxCell id="WkI-PX76aLv5rKXKa11S-2" value="" style="rounded=0;whiteSpace=wrap;html=1;" parent="1" vertex="1">
          <mxGeometry x="660" y="300" width="280" height="180" as="geometry" />
        </mxCell>
        <mxCell id="uzIJghUKcDI-tuc5dc2s-29" value="" style="rounded=0;whiteSpace=wrap;html=1;" parent="1" vertex="1">
          <mxGeometry x="380" y="205" width="170" height="60" as="geometry" />
        </mxCell>
        <mxCell id="uzIJghUKcDI-tuc5dc2s-28" value="" style="rounded=0;whiteSpace=wrap;html=1;" parent="1" vertex="1">
          <mxGeometry x="660" y="-57.5" width="380" height="320" as="geometry" />
        </mxCell>
        <mxCell id="uzIJghUKcDI-tuc5dc2s-16" value="" style="shape=image;verticalLabelPosition=bottom;labelBackgroundColor=default;verticalAlign=top;aspect=fixed;imageAspect=0;image=https://www.tegakari.net/wp-content/uploads/2023/12/hivemq_cloud_logo.jpg;" parent="1" vertex="1">
          <mxGeometry x="384.94" y="207.5" width="160.11" height="55" as="geometry" />
        </mxCell>
        <mxCell id="uzIJghUKcDI-tuc5dc2s-10" value="" style="rounded=0;whiteSpace=wrap;html=1;" parent="1" vertex="1">
          <mxGeometry x="30" y="80" width="130" height="310" as="geometry" />
        </mxCell>
        <mxCell id="uzIJghUKcDI-tuc5dc2s-1" value="" style="shape=image;verticalLabelPosition=bottom;labelBackgroundColor=default;verticalAlign=top;aspect=fixed;imageAspect=0;image=https://img.directindustry.com/images_di/photo-g/17587-5279883.jpg;" parent="1" vertex="1">
          <mxGeometry x="40" y="160" width="116" height="116" as="geometry" />
        </mxCell>
        <mxCell id="uzIJghUKcDI-tuc5dc2s-2" value="" style="shape=image;verticalLabelPosition=bottom;labelBackgroundColor=default;verticalAlign=top;aspect=fixed;imageAspect=0;image=https://img.directindustry.com/images_di/photo-g/17587-5279883.jpg;" parent="1" vertex="1">
          <mxGeometry x="37" y="265" width="116" height="116" as="geometry" />
        </mxCell>
        <mxCell id="uzIJghUKcDI-tuc5dc2s-3" value="" style="shape=image;verticalLabelPosition=bottom;labelBackgroundColor=default;verticalAlign=top;aspect=fixed;imageAspect=0;image=https://logodix.com/logo/932127.png;" parent="1" vertex="1">
          <mxGeometry x="78" y="100" width="40" height="40" as="geometry" />
        </mxCell>
        <mxCell id="uzIJghUKcDI-tuc5dc2s-4" value="" style="shape=image;verticalLabelPosition=bottom;labelBackgroundColor=default;verticalAlign=top;aspect=fixed;imageAspect=0;image=https://blog.quindorian.org/wp-content/uploads/2019/05/node-red-logo.png;" parent="1" vertex="1">
          <mxGeometry x="247.82" y="210" width="72.18" height="40" as="geometry" />
        </mxCell>
        <mxCell id="uzIJghUKcDI-tuc5dc2s-11" value="" style="endArrow=classic;html=1;rounded=0;exitX=1;exitY=0.5;exitDx=0;exitDy=0;entryX=0.03;entryY=0.625;entryDx=0;entryDy=0;entryPerimeter=0;" parent="1" source="uzIJghUKcDI-tuc5dc2s-10" target="uzIJghUKcDI-tuc5dc2s-4" edge="1">
          <mxGeometry width="50" height="50" relative="1" as="geometry">
            <mxPoint x="170" y="180" as="sourcePoint" />
            <mxPoint x="240" y="230" as="targetPoint" />
          </mxGeometry>
        </mxCell>
        <mxCell id="uzIJghUKcDI-tuc5dc2s-14" value="&lt;font style=&quot;font-size: 8px;&quot;&gt;&lt;b&gt;MQTT Json Payload&lt;/b&gt;&lt;/font&gt;" style="text;html=1;align=center;verticalAlign=middle;whiteSpace=wrap;rounded=0;" parent="1" vertex="1">
          <mxGeometry x="320" y="197.5" width="60" height="30" as="geometry" />
        </mxCell>
        <mxCell id="uzIJghUKcDI-tuc5dc2s-17" value="" style="shape=image;verticalLabelPosition=bottom;labelBackgroundColor=default;verticalAlign=top;aspect=fixed;imageAspect=0;image=https://www.procedural-worlds.com/media/q04npoje/unitylogo270x270.jpg;" parent="1" vertex="1">
          <mxGeometry x="670" y="52.5" width="100" height="100" as="geometry" />
        </mxCell>
        <mxCell id="uzIJghUKcDI-tuc5dc2s-18" value="" style="endArrow=classic;html=1;rounded=0;" parent="1" edge="1">
          <mxGeometry width="50" height="50" relative="1" as="geometry">
            <mxPoint x="530" y="200" as="sourcePoint" />
            <mxPoint x="620" y="140" as="targetPoint" />
          </mxGeometry>
        </mxCell>
        <mxCell id="uzIJghUKcDI-tuc5dc2s-21" value="&lt;font style=&quot;font-size: 8px;&quot;&gt;&lt;b&gt;Json Input&lt;/b&gt;&lt;/font&gt;" style="text;html=1;align=center;verticalAlign=middle;whiteSpace=wrap;rounded=0;" parent="1" vertex="1">
          <mxGeometry x="600" y="105" width="60" height="30" as="geometry" />
        </mxCell>
        <mxCell id="uzIJghUKcDI-tuc5dc2s-22" value="" style="endArrow=classic;html=1;rounded=0;exitX=1;exitY=0.25;exitDx=0;exitDy=0;entryX=0;entryY=0.75;entryDx=0;entryDy=0;" parent="1" source="uzIJghUKcDI-tuc5dc2s-17" target="uzIJghUKcDI-tuc5dc2s-23" edge="1">
          <mxGeometry width="50" height="50" relative="1" as="geometry">
            <mxPoint x="595" y="117.5" as="sourcePoint" />
            <mxPoint x="810" y="112.5" as="targetPoint" />
          </mxGeometry>
        </mxCell>
        <mxCell id="uzIJghUKcDI-tuc5dc2s-23" value="&lt;font style=&quot;font-size: 8px;&quot;&gt;&lt;b&gt;Data Visualization&lt;/b&gt;&lt;/font&gt;" style="text;html=1;align=center;verticalAlign=middle;whiteSpace=wrap;rounded=0;" parent="1" vertex="1">
          <mxGeometry x="820" y="27.5" width="60" height="30" as="geometry" />
        </mxCell>
        <mxCell id="uzIJghUKcDI-tuc5dc2s-24" value="" style="shape=image;verticalLabelPosition=bottom;labelBackgroundColor=default;verticalAlign=top;aspect=fixed;imageAspect=0;image=https://c8.alamy.com/comp/2BEFB7X/business-data-graphs-vector-financial-and-marketing-charts-illustration-of-data-financial-graph-and-diagram-2BEFB7X.jpg;" parent="1" vertex="1">
          <mxGeometry x="880" y="-37.5" width="129" height="135.91" as="geometry" />
        </mxCell>
        <mxCell id="uzIJghUKcDI-tuc5dc2s-25" value="" style="shape=image;verticalLabelPosition=bottom;labelBackgroundColor=default;verticalAlign=top;aspect=fixed;imageAspect=0;image=https://static.turbosquid.com/Preview/2014/05/18__04_50_51/KukaRobotManipulatorWire_turn0001.jpgfb105e23-306d-44db-ba4f-85b36a158e97Large-1.jpg;" parent="1" vertex="1">
          <mxGeometry x="880" y="112.5" width="140" height="140" as="geometry" />
        </mxCell>
        <mxCell id="uzIJghUKcDI-tuc5dc2s-26" value="" style="endArrow=classic;html=1;rounded=0;exitX=1;exitY=0.75;exitDx=0;exitDy=0;entryX=0;entryY=0.25;entryDx=0;entryDy=0;" parent="1" source="uzIJghUKcDI-tuc5dc2s-17" target="uzIJghUKcDI-tuc5dc2s-27" edge="1">
          <mxGeometry width="50" height="50" relative="1" as="geometry">
            <mxPoint x="595" y="117.5" as="sourcePoint" />
            <mxPoint x="810" y="162.5" as="targetPoint" />
          </mxGeometry>
        </mxCell>
        <mxCell id="uzIJghUKcDI-tuc5dc2s-27" value="&lt;font style=&quot;font-size: 8px;&quot;&gt;&lt;b&gt;Digital Twin&lt;/b&gt;&lt;/font&gt;" style="text;html=1;align=center;verticalAlign=middle;whiteSpace=wrap;rounded=0;" parent="1" vertex="1">
          <mxGeometry x="820" y="167.5" width="60" height="30" as="geometry" />
        </mxCell>
        <mxCell id="WkI-PX76aLv5rKXKa11S-1" value="" style="shape=image;verticalLabelPosition=bottom;labelBackgroundColor=default;verticalAlign=top;aspect=fixed;imageAspect=0;image=https://www.devopsschool.com/blog/wp-content/uploads/2022/02/apache-kafka.jpg;" parent="1" vertex="1">
          <mxGeometry x="693.76" y="340" width="232.48" height="130" as="geometry" />
        </mxCell>
        <mxCell id="WkI-PX76aLv5rKXKa11S-3" value="" style="endArrow=classic;html=1;rounded=0;" parent="1" edge="1">
          <mxGeometry width="50" height="50" relative="1" as="geometry">
            <mxPoint x="510" y="265" as="sourcePoint" />
            <mxPoint x="630" y="385" as="targetPoint" />
          </mxGeometry>
        </mxCell>
        <mxCell id="HRMNxM90OMdRMKzMQ-eC-1" value="" style="endArrow=classic;html=1;rounded=0;entryX=0.006;entryY=0.473;entryDx=0;entryDy=0;entryPerimeter=0;" parent="1" target="HRMNxM90OMdRMKzMQ-eC-2" edge="1">
          <mxGeometry width="50" height="50" relative="1" as="geometry">
            <mxPoint x="1040" y="98.41" as="sourcePoint" />
            <mxPoint x="1130" y="98" as="targetPoint" />
          </mxGeometry>
        </mxCell>
        <mxCell id="HRMNxM90OMdRMKzMQ-eC-3" value="&lt;b&gt;XR&amp;nbsp;&lt;/b&gt;&lt;div&gt;&lt;b&gt;Applications&lt;/b&gt;&lt;/div&gt;" style="edgeLabel;html=1;align=center;verticalAlign=middle;resizable=0;points=[];" parent="HRMNxM90OMdRMKzMQ-eC-1" vertex="1" connectable="0">
          <mxGeometry x="-0.0285" relative="1" as="geometry">
            <mxPoint as="offset" />
          </mxGeometry>
        </mxCell>
        <mxCell id="HRMNxM90OMdRMKzMQ-eC-2" value="" style="rounded=0;whiteSpace=wrap;html=1;" parent="1" vertex="1">
          <mxGeometry x="1134" y="-59" width="380" height="320" as="geometry" />
        </mxCell>
        <mxCell id="HRMNxM90OMdRMKzMQ-eC-5" value="" style="shape=image;verticalLabelPosition=bottom;labelBackgroundColor=default;verticalAlign=top;aspect=fixed;imageAspect=0;image=https://futurus.com/wp-content/uploads/2019/11/Intro-to-AR.jpg;" parent="1" vertex="1">
          <mxGeometry x="1156" y="-39" width="227" height="127.5" as="geometry" />
        </mxCell>
        <mxCell id="HRMNxM90OMdRMKzMQ-eC-6" value="" style="shape=image;verticalLabelPosition=bottom;labelBackgroundColor=default;verticalAlign=top;aspect=fixed;imageAspect=0;image=https://www.optimum.com/sites/default/files/2023-10/jessica-lewis-DeyfdybVQhA-unsplash.jpg;" parent="1" vertex="1">
          <mxGeometry x="1269" y="96.91" width="225.28" height="150" as="geometry" />
        </mxCell>
        <mxCell id="HRMNxM90OMdRMKzMQ-eC-9" value="" style="endArrow=classic;html=1;rounded=0;" parent="1" edge="1">
          <mxGeometry width="50" height="50" relative="1" as="geometry">
            <mxPoint x="610" y="390" as="sourcePoint" />
            <mxPoint x="490" y="270" as="targetPoint" />
          </mxGeometry>
        </mxCell>
        <mxCell id="HRMNxM90OMdRMKzMQ-eC-10" value="" style="endArrow=classic;html=1;rounded=0;entryX=0.03;entryY=0.625;entryDx=0;entryDy=0;entryPerimeter=0;" parent="1" edge="1">
          <mxGeometry width="50" height="50" relative="1" as="geometry">
            <mxPoint x="325" y="234.5" as="sourcePoint" />
            <mxPoint x="375" y="234.5" as="targetPoint" />
          </mxGeometry>
        </mxCell>
        <mxCell id="HRMNxM90OMdRMKzMQ-eC-11" value="" style="endArrow=classic;html=1;rounded=0;entryX=1.031;entryY=0.587;entryDx=0;entryDy=0;entryPerimeter=0;" parent="1" target="uzIJghUKcDI-tuc5dc2s-10" edge="1">
          <mxGeometry width="50" height="50" relative="1" as="geometry">
            <mxPoint x="370" y="260" as="sourcePoint" />
            <mxPoint x="160" y="290" as="targetPoint" />
          </mxGeometry>
        </mxCell>
        <mxCell id="fYFjBYdR_pZwH0ae9uz8-3" value="" style="endArrow=classic;html=1;rounded=0;" edge="1" parent="1">
          <mxGeometry width="50" height="50" relative="1" as="geometry">
            <mxPoint x="940" y="384" as="sourcePoint" />
            <mxPoint x="1001" y="384" as="targetPoint" />
          </mxGeometry>
        </mxCell>
      </root>
    </mxGraphModel>
  </diagram>
</mxfile>
